<svg width="27" height="27" viewBox="0 0 27 27" fill="none" xmlns="http://www.w3.org/2000/svg">
<path d="M4.54651 21.19V19.565H6.82151V11.2775C6.82151 9.76082 7.26838 8.41116 8.16213 7.22852C9.05588 6.04589 10.234 5.30109 11.6965 4.99415V4.20873C11.6965 3.79345 11.8455 3.4504 12.1434 3.17957C12.4413 2.90873 12.7979 2.77332 13.2132 2.77332C13.6285 2.77332 13.9851 2.90873 14.283 3.17957C14.5809 3.4504 14.7298 3.79345 14.7298 4.20873V4.99415C16.1923 5.30109 17.375 6.04589 18.2778 7.22852C19.1805 8.41116 19.6319 9.76082 19.6319 11.2775V19.565H21.8798V21.19H4.54651ZM13.2132 24.44C12.6354 24.44 12.1298 24.2278 11.6965 23.8035C11.2632 23.3792 11.0465 22.8692 11.0465 22.2733H15.3798C15.3798 22.8692 15.1677 23.3792 14.7434 23.8035C14.3191 24.2278 13.809 24.44 13.2132 24.44Z" fill="#3478ff"/>
</svg>
