<svg width="27" height="27" viewBox="0 0 27 27" fill="none" xmlns="http://www.w3.org/2000/svg">
<path d="M7.98035 24.4129C7.44251 24.4129 6.984 24.2214 6.60484 23.8384C6.22567 23.4554 6.03609 22.995 6.03609 22.4572C6.03609 21.9193 6.22759 21.4608 6.61058 21.0816C6.99359 20.7025 7.45401 20.5129 7.99183 20.5129C8.52967 20.5129 8.98817 20.7044 9.36734 21.0874C9.74651 21.4704 9.93609 21.9308 9.93609 22.4686C9.93609 23.0065 9.74459 23.465 9.3616 23.8441C8.97858 24.2233 8.51817 24.4129 7.98035 24.4129ZM18.8137 24.4129C18.2758 24.4129 17.8173 24.2214 17.4382 23.8384C17.059 23.4554 16.8694 22.995 16.8694 22.4572C16.8694 21.9193 17.0609 21.4608 17.4439 21.0816C17.8269 20.7025 18.2873 20.5129 18.8252 20.5129C19.363 20.5129 19.8215 20.7044 20.2007 21.0874C20.5798 21.4704 20.7694 21.9308 20.7694 22.4686C20.7694 23.0065 20.5779 23.465 20.1949 23.8441C19.8119 24.2233 19.3515 24.4129 18.8137 24.4129ZM5.76525 4.9129H21.7193C22.134 4.9129 22.4494 5.10248 22.6658 5.48165C22.8821 5.86082 22.8819 6.23998 22.6653 6.61915L19.009 13.2004C18.8104 13.5435 18.5526 13.8188 18.2355 14.0264C17.9185 14.2341 17.5714 14.3379 17.1944 14.3379H8.98817L7.47151 17.1546H20.7694V18.7796H7.71526C6.95692 18.7796 6.41074 18.5268 6.07671 18.0212C5.74269 17.5157 5.7472 16.9469 6.09026 16.315L7.82359 13.1191L3.70692 4.39832H1.59442V2.77332H4.76317L5.76525 4.9129Z" fill="#5A5A5A"/>
</svg>
