<svg width="12" height="12" viewBox="0 0 12 12" fill="none" xmlns="http://www.w3.org/2000/svg">
<circle cx="6" cy="6" r="6" fill="#E9E9EE"/>
<path d="M5.33992 6.88086C5.34968 5.57227 5.75008 5.17188 6.4239 4.76172C6.82918 4.51758 7.13679 4.12695 7.13679 3.58008C7.13679 2.91602 6.61922 2.49121 5.97468 2.49609C5.41804 2.49121 4.85652 2.82324 4.80281 3.62891H3.91414C3.96297 2.44238 4.85652 1.75391 5.97468 1.75391C7.20027 1.75391 7.99617 2.54004 7.99617 3.61914C7.99617 4.38574 7.63484 4.91797 7.02937 5.28906C6.41902 5.66016 6.19929 6.03613 6.17976 6.88086V6.92969H5.33992V6.88086ZM5.16414 8.3457C5.15437 8.00391 5.44734 7.7207 5.78914 7.7207C6.13582 7.7207 6.41902 8.00391 6.41414 8.3457C6.41902 8.69238 6.13582 8.97559 5.78914 8.98047C5.44734 8.97559 5.15437 8.69238 5.16414 8.3457Z" fill="#9090A0"/>
</svg>
