<svg width="20" height="18" viewBox="0 0 20 18" fill="none" xmlns="http://www.w3.org/2000/svg">
<path d="M17.612 1.97003C17.1722 1.52158 16.65 1.16585 16.0752 0.923141C15.5005 0.680433 14.8844 0.555511 14.2623 0.555511C13.6401 0.555511 13.0241 0.680433 12.4493 0.923141C11.8746 1.16585 11.3524 1.52158 10.9126 1.97003L9.99977 2.90027L9.08699 1.97003C8.19858 1.06463 6.99364 0.555981 5.73725 0.555981C4.48085 0.555981 3.27591 1.06463 2.38751 1.97003C1.4991 2.87543 1 4.10341 1 5.38384C1 6.66427 1.4991 7.89225 2.38751 8.79765L3.30029 9.72789L9.99977 16.5555L16.6992 9.72789L17.612 8.79765C18.0521 8.34942 18.4011 7.81722 18.6393 7.23147C18.8774 6.64572 19 6.01788 19 5.38384C19 4.74979 18.8774 4.12196 18.6393 3.53621C18.4011 2.95045 18.0521 2.41826 17.612 1.97003V1.97003Z" fill="#FF5050" stroke="#FFB3B3" stroke-linecap="round" stroke-linejoin="round"/>
</svg>
