<svg width="18" height="16" viewBox="0 0 18 16" fill="none" xmlns="http://www.w3.org/2000/svg">
<path d="M16.612 1.39241C16.1722 0.950978 15.65 0.6008 15.0752 0.361885C14.5005 0.12297 13.8844 0 13.2623 0C12.6401 0 12.0241 0.12297 11.4493 0.361885C10.8746 0.6008 10.3524 0.950978 9.91255 1.39241L8.99977 2.30812L8.08699 1.39241C7.19858 0.501162 5.99364 0.000461967 4.73725 0.000461976C3.48085 0.000461986 2.27591 0.501162 1.38751 1.39241C0.499101 2.28367 9.36088e-09 3.49246 0 4.75288C-9.36088e-09 6.0133 0.499101 7.2221 1.38751 8.11335L2.30029 9.02906L8.99977 15.75L15.6992 9.02906L16.612 8.11335C17.0521 7.67213 17.4011 7.14825 17.6393 6.57165C17.8774 5.99505 18 5.37702 18 4.75288C18 4.12875 17.8774 3.51072 17.6393 2.93412C17.4011 2.35752 17.0521 1.83364 16.612 1.39241Z" fill="#9090A0"/>
</svg>
