<svg width="12" height="12" viewBox="0 0 12 12" fill="none" xmlns="http://www.w3.org/2000/svg">
<path d="M10.4404 2.38065C10.1838 2.11905 9.87917 1.91154 9.54389 1.76996C9.20862 1.62838 8.84926 1.55551 8.48634 1.55551C8.12342 1.55551 7.76406 1.62838 7.42878 1.76996C7.0935 1.91154 6.78888 2.11905 6.53232 2.38065L5.99987 2.92329L5.46741 2.38065C4.94917 1.8525 4.24629 1.55579 3.51339 1.55579C2.7805 1.55579 2.07762 1.8525 1.55938 2.38065C1.04114 2.9088 0.75 3.62512 0.75 4.37204C0.75 5.11895 1.04114 5.83528 1.55938 6.36343L2.09184 6.90607L5.99987 10.8888L9.9079 6.90607L10.4404 6.36343C10.697 6.10196 10.9007 5.79151 11.0396 5.44982C11.1785 5.10813 11.25 4.7419 11.25 4.37204C11.25 4.00218 11.1785 3.63594 11.0396 3.29425C10.9007 2.95256 10.697 2.64211 10.4404 2.38065V2.38065Z" stroke="#464656" stroke-width="1.5" stroke-linecap="round" stroke-linejoin="round"/>
</svg>
