<svg width="187" height="21" viewBox="0 0 187 21" fill="none" xmlns="http://www.w3.org/2000/svg">
<path d="M9.184 12.244C9.016 11.9267 8.85733 11.684 8.708 11.516C8.55867 11.348 8.35333 11.2267 8.092 11.152C7.84933 11.0587 7.476 10.9933 6.972 10.956L5.88 16.668C5.824 16.9853 5.768 17.2653 5.712 17.508C5.67467 17.7507 5.656 17.9747 5.656 18.18C5.656 18.5533 5.796 18.7867 6.076 18.88C6.37467 18.9733 7.00933 19.0573 7.98 19.132C7.96133 19.2627 7.93333 19.412 7.896 19.58C7.87733 19.748 7.84933 19.8973 7.812 20.028C7.23333 20.0093 6.58 20 5.852 20C5.14267 19.9813 4.47067 19.972 3.836 19.972C3.20133 19.972 2.53867 19.9813 1.848 20C1.176 20 0.457333 20.0093 -0.308 20.028C-0.308 19.8973 -0.298667 19.748 -0.28 19.58C-0.261333 19.412 -0.224 19.2627 -0.168 19.132C0.634667 19.0387 1.21333 18.9547 1.568 18.88C1.94133 18.7867 2.19333 18.6093 2.324 18.348C2.47333 18.068 2.604 17.62 2.716 17.004L5.292 3.732C5.36667 3.396 5.42267 3.116 5.46 2.892C5.49733 2.64933 5.516 2.444 5.516 2.276C5.516 1.84667 5.348 1.59467 5.012 1.52C4.69467 1.42667 4.05067 1.34267 3.08 1.268C3.09867 0.987999 3.15467 0.689333 3.248 0.371999C3.78933 0.371999 4.40533 0.381332 5.096 0.399999C5.78667 0.418665 6.34667 0.427998 6.776 0.427998C7.07467 0.427998 7.504 0.427998 8.064 0.427998C8.624 0.409332 9.17467 0.399999 9.716 0.399999C10.2573 0.381332 10.6587 0.371999 10.92 0.371999C12.9173 0.371999 14.4293 0.726666 15.456 1.436C16.5013 2.14533 17.024 3.24667 17.024 4.74C17.024 6.252 16.5107 7.50267 15.484 8.492C14.4573 9.46267 13.132 10.1813 11.508 10.648V10.732C11.6573 10.9 11.7973 11.0867 11.928 11.292C12.0773 11.4787 12.2267 11.7027 12.376 11.964C12.544 12.244 12.7493 12.636 12.992 13.14C13.2533 13.644 13.524 14.1853 13.804 14.764C14.084 15.324 14.3453 15.856 14.588 16.36C14.9987 17.1813 15.3533 17.788 15.652 18.18C15.9507 18.5533 16.2867 18.796 16.66 18.908C17.0333 19.0013 17.528 19.076 18.144 19.132C18.144 19.4307 18.0787 19.7293 17.948 20.028C17.6493 20.028 17.2573 20.0187 16.772 20C16.2867 20 15.8107 20 15.344 20C14.8773 19.9813 14.504 19.972 14.224 19.972C13.9253 19.972 13.6827 19.9813 13.496 20C13.328 20 13.0947 20 12.796 20C12.4973 19.2347 12.152 18.4133 11.76 17.536C11.3867 16.64 10.976 15.7347 10.528 14.82C10.0987 13.9053 9.65067 13.0467 9.184 12.244ZM7.196 9.808C7.43867 9.84533 7.69067 9.88267 7.952 9.92C8.232 9.93867 8.50267 9.948 8.764 9.948C9.94 9.948 10.9013 9.724 11.648 9.276C12.3947 8.828 12.9453 8.23067 13.3 7.484C13.6547 6.73733 13.832 5.916 13.832 5.02C13.832 4.46 13.7387 3.91867 13.552 3.396C13.384 2.85467 13.0573 2.40667 12.572 2.052C12.1053 1.69733 11.424 1.52 10.528 1.52C10.36 1.52 10.0987 1.52933 9.744 1.548C9.408 1.548 9.09067 1.55733 8.792 1.576L7.196 9.808ZM18.0051 20.028C18.0051 19.8973 18.0144 19.748 18.0331 19.58C18.0518 19.412 18.0891 19.2627 18.1451 19.132C18.9478 19.0573 19.5264 18.9827 19.8811 18.908C20.2544 18.8147 20.5158 18.6373 20.6651 18.376C20.8144 18.096 20.9451 17.6387 21.0571 17.004L23.6331 3.732C23.7078 3.396 23.7638 3.10667 23.8011 2.864C23.8384 2.62133 23.8571 2.42533 23.8571 2.276C23.8571 1.84667 23.6891 1.59467 23.3531 1.52C23.0358 1.42667 22.3918 1.34267 21.4211 1.268C21.4398 1.11867 21.4584 0.978666 21.4771 0.848C21.4958 0.698666 21.5424 0.539999 21.6171 0.371999C21.9718 0.371999 22.4384 0.381332 23.0171 0.399999C23.6144 0.399999 24.2584 0.409332 24.9491 0.427998C25.6398 0.427998 26.2931 0.427998 26.9091 0.427998H30.7451C31.8838 0.427998 32.8544 0.427998 33.6571 0.427998C34.4784 0.409332 35.1504 0.390665 35.6731 0.371999V1.604C35.6731 2.108 35.6731 2.62133 35.6731 3.144C35.6918 3.66667 35.7011 4.22667 35.7011 4.824C35.4024 4.88 35.1224 4.88 34.8611 4.824C34.5811 3.94667 34.3198 3.27467 34.0771 2.808C33.8344 2.34133 33.4798 2.024 33.0131 1.856C32.5651 1.66933 31.8838 1.576 30.9691 1.576H27.2171L25.7331 9.22H27.4411C28.1131 9.22 28.6451 9.20133 29.0371 9.164C29.4291 9.108 29.7464 8.996 29.9891 8.828C30.2318 8.64133 30.4464 8.36133 30.6331 7.988C30.8198 7.596 31.0344 7.05467 31.2771 6.364C31.6318 6.308 31.9771 6.308 32.3131 6.364C32.1824 6.868 32.0331 7.44667 31.8651 8.1C31.7158 8.75333 31.5851 9.35067 31.4731 9.892C31.3611 10.4333 31.2491 11.0307 31.1371 11.684C31.0251 12.3373 30.9318 12.9627 30.8571 13.56C30.4838 13.616 30.1291 13.616 29.7931 13.56C29.8304 13.3547 29.8491 13.14 29.8491 12.916C29.8678 12.692 29.8771 12.5053 29.8771 12.356C29.8771 11.7213 29.7931 11.2733 29.6251 11.012C29.4571 10.7507 29.1771 10.592 28.7851 10.536C28.4118 10.4613 27.8798 10.424 27.1891 10.424H25.5091L23.8851 18.796H27.8611C28.9251 18.796 29.7744 18.684 30.4091 18.46C31.0438 18.2173 31.5851 17.816 32.0331 17.256C32.4811 16.696 32.9571 15.9493 33.4611 15.016C33.8158 14.9227 34.1704 14.9227 34.5251 15.016C34.1144 16.1173 33.7784 17.0787 33.5171 17.9C33.2744 18.7213 33.0784 19.4213 32.9291 20C31.0998 20 29.2518 20 27.3851 20C25.5184 19.9813 23.6798 19.972 21.8691 19.972C21.3464 19.972 20.7024 19.9813 19.9371 20C19.1904 20.0187 18.5464 20.028 18.0051 20.028ZM47.5471 16.332L46.9871 12.72H40.8271L38.8951 16.248C38.6524 16.7147 38.4377 17.1347 38.2511 17.508C38.0831 17.8627 37.9991 18.1427 37.9991 18.348C37.9991 18.628 38.1484 18.8053 38.4471 18.88C38.7644 18.9547 39.2964 19.0387 40.0431 19.132C40.0431 19.4493 39.9871 19.748 39.8751 20.028C39.6137 20.0093 39.2404 20 38.7551 20C38.2697 20 37.7844 20 37.2991 20C36.8137 19.9813 36.4311 19.972 36.1511 19.972C35.6284 19.972 35.1337 19.9813 34.6671 20C34.2004 20 33.6871 20.0093 33.1271 20.028C33.1271 19.7293 33.1831 19.44 33.2951 19.16C33.8551 19.1227 34.3124 19.0667 34.6671 18.992C35.0217 18.8987 35.3484 18.7307 35.6471 18.488C35.9457 18.2267 36.2817 17.816 36.6551 17.256C37.0284 16.6773 37.5137 15.8747 38.1111 14.848C38.6337 13.9333 39.2404 12.8693 39.9311 11.656C40.6217 10.4427 41.3497 9.17333 42.1151 7.848C42.8804 6.52267 43.6271 5.216 44.3551 3.928C45.0831 2.64 45.7551 1.47333 46.3711 0.427998C46.6324 0.371999 46.8657 0.325332 47.0711 0.287998C47.2951 0.250666 47.5097 0.222666 47.7151 0.204L50.5991 16.192C50.7297 16.864 50.8511 17.396 50.9631 17.788C51.0937 18.1613 51.2524 18.432 51.4391 18.6C51.6257 18.768 51.8777 18.8893 52.1951 18.964C52.5124 19.02 52.9324 19.076 53.4551 19.132C53.4551 19.4493 53.3991 19.748 53.2871 20.028C52.8391 20.0093 52.2977 20 51.6631 20C51.0284 19.9813 50.4031 19.972 49.7871 19.972C49.2457 19.972 48.5364 19.9813 47.6591 20C46.7817 20 45.9604 20.0093 45.1951 20.028C45.2137 19.8787 45.2324 19.7293 45.2511 19.58C45.2697 19.412 45.3071 19.2627 45.3631 19.132C46.0351 19.0573 46.5391 18.992 46.8751 18.936C47.2111 18.88 47.4351 18.768 47.5471 18.6C47.6777 18.4133 47.7431 18.124 47.7431 17.732C47.7431 17.6387 47.7337 17.4987 47.7151 17.312C47.6964 17.1067 47.6404 16.78 47.5471 16.332ZM41.4991 11.544H46.7911L45.6151 4.04L41.4991 11.544ZM53.2381 20.028C53.2381 19.8973 53.2474 19.748 53.2661 19.58C53.2847 19.412 53.3221 19.2627 53.3781 19.132C54.1434 19.0573 54.7034 18.9827 55.0581 18.908C55.4314 18.8147 55.6927 18.6373 55.8421 18.376C56.0101 18.096 56.1594 17.6387 56.2901 17.004L58.8661 3.732C58.9407 3.37733 58.9967 3.088 59.0341 2.864C59.0714 2.62133 59.0901 2.416 59.0901 2.248C59.0901 1.81867 58.9221 1.56667 58.5861 1.492C58.2687 1.39867 57.6247 1.324 56.6541 1.268C56.6727 0.987999 56.7287 0.689333 56.8221 0.371999C57.1581 0.371999 57.5687 0.381332 58.0541 0.399999C58.5581 0.399999 59.0434 0.409332 59.5101 0.427998C59.9954 0.427998 60.3594 0.427998 60.6021 0.427998C60.8634 0.427998 61.2741 0.427998 61.8341 0.427998C62.3941 0.409332 62.9541 0.399999 63.5141 0.399999C64.0741 0.381332 64.4941 0.371999 64.7741 0.371999C66.6221 0.371999 68.2367 0.651999 69.6181 1.212C71.0181 1.75333 72.1101 2.612 72.8941 3.788C73.6781 4.964 74.0701 6.49467 74.0701 8.38C74.0701 10.284 73.7434 11.964 73.0901 13.42C72.4554 14.8573 71.5501 16.0707 70.3741 17.06C69.2167 18.0493 67.8541 18.796 66.2861 19.3C64.7181 19.7853 63.0194 20.028 61.1901 20.028C60.7421 20.028 60.1914 20.0187 59.5381 20C58.8847 19.9813 58.2594 19.972 57.6621 19.972C57.2514 19.972 56.7661 19.9813 56.2061 20C55.6647 20 55.1234 20 54.5821 20C54.0594 20.0187 53.6114 20.028 53.2381 20.028ZM59.0621 18.684C59.8647 18.8147 60.6487 18.88 61.4141 18.88C62.9074 18.88 64.1861 18.6653 65.2501 18.236C66.3141 17.788 67.2007 17.2093 67.9101 16.5C68.6194 15.772 69.1794 14.9693 69.5901 14.092C70.0007 13.196 70.2901 12.2907 70.4581 11.376C70.6447 10.4427 70.7381 9.57467 70.7381 8.772C70.7381 6.42 70.1127 4.628 68.8621 3.396C67.6114 2.14533 65.8194 1.52 63.4861 1.52C63.1127 1.52 62.7394 1.53867 62.3661 1.576L59.0621 18.684ZM80.4477 11.992L77.7597 4.124C77.4797 3.284 77.237 2.67733 77.0317 2.304C76.8264 1.912 76.5557 1.66 76.2197 1.548C75.9024 1.41733 75.4264 1.324 74.7917 1.268C74.7917 1.00667 74.8384 0.707999 74.9317 0.371999C75.6037 0.390665 76.257 0.409332 76.8917 0.427998C77.5264 0.427998 78.189 0.427998 78.8797 0.427998C79.589 0.427998 80.3264 0.418665 81.0917 0.399999C81.857 0.381332 82.501 0.371999 83.0237 0.371999C83.0237 0.502666 83.005 0.651999 82.9677 0.819998C82.949 0.969332 82.9024 1.11867 82.8277 1.268C81.8384 1.34267 81.1944 1.464 80.8957 1.632C80.597 1.78133 80.4477 1.98667 80.4477 2.248C80.4477 2.49067 80.5784 2.99467 80.8397 3.76L83.1077 10.34L88.0077 3.452C88.269 3.07867 88.437 2.79867 88.5117 2.612C88.605 2.42533 88.6517 2.248 88.6517 2.08C88.6517 1.83733 88.5024 1.66 88.2037 1.548C87.9237 1.436 87.345 1.34267 86.4677 1.268C86.4864 0.987999 86.5517 0.689333 86.6637 0.371999C86.9811 0.371999 87.3544 0.381332 87.7837 0.399999C88.2317 0.399999 88.6797 0.409332 89.1277 0.427998C89.5757 0.427998 89.9491 0.427998 90.2477 0.427998C90.845 0.427998 91.4144 0.427998 91.9557 0.427998C92.4971 0.409332 93.0571 0.390665 93.6357 0.371999C93.6171 0.502666 93.5891 0.651999 93.5517 0.819998C93.5144 0.969332 93.4771 1.11867 93.4397 1.268C92.8984 1.324 92.4411 1.39867 92.0677 1.492C91.713 1.56667 91.3864 1.69733 91.0877 1.884C90.8077 2.07067 90.4997 2.36 90.1637 2.752C89.8464 3.144 89.4451 3.676 88.9597 4.348L83.5837 11.796L82.6317 16.668C82.557 17.004 82.4917 17.284 82.4357 17.508C82.3984 17.732 82.3797 17.9373 82.3797 18.124C82.3797 18.5347 82.5384 18.7867 82.8557 18.88C83.173 18.9733 83.845 19.0573 84.8717 19.132C84.853 19.2627 84.825 19.412 84.7877 19.58C84.769 19.748 84.741 19.8973 84.7037 20.028C84.1624 20.028 83.5091 20.0187 82.7437 20C81.997 19.9813 81.297 19.972 80.6437 19.972C80.1957 19.972 79.6917 19.9813 79.1317 20C78.5904 20 78.0677 20 77.5637 20C77.0597 20.0187 76.6304 20.028 76.2757 20.028C76.2757 19.8973 76.285 19.748 76.3037 19.58C76.3224 19.412 76.3597 19.2627 76.4157 19.132C77.2744 19.0573 77.8904 18.9827 78.2637 18.908C78.6557 18.8147 78.9264 18.628 79.0757 18.348C79.225 18.068 79.3557 17.62 79.4677 17.004L80.4477 11.992ZM91.943 20.336C91.3644 20.336 90.8977 20.1493 90.543 19.776C90.207 19.4027 90.039 18.9547 90.039 18.432C90.039 17.816 90.2537 17.2933 90.683 16.864C91.131 16.416 91.6724 16.192 92.307 16.192C92.8857 16.192 93.3337 16.3693 93.651 16.724C93.987 17.0787 94.155 17.5267 94.155 18.068C94.155 18.684 93.9497 19.216 93.539 19.664C93.1284 20.112 92.5964 20.336 91.943 20.336ZM93.819 10.676C93.2404 10.676 92.7737 10.4893 92.419 10.116C92.083 9.74267 91.915 9.29467 91.915 8.772C91.915 8.156 92.1297 7.63333 92.559 7.204C93.007 6.756 93.5484 6.532 94.183 6.532C94.7617 6.532 95.2097 6.70933 95.527 7.064C95.863 7.41867 96.031 7.86667 96.031 8.408C96.031 9.024 95.8257 9.556 95.415 10.004C95.0044 10.452 94.4724 10.676 93.819 10.676ZM113.997 20.084L110.749 2.948L107.893 16.556C107.762 17.1907 107.697 17.6667 107.697 17.984C107.697 18.3947 107.856 18.6747 108.173 18.824C108.509 18.9547 109.144 19.0573 110.077 19.132C110.058 19.2627 110.04 19.412 110.021 19.58C110.021 19.7293 110.002 19.8693 109.965 20C109.554 20 109.041 20 108.425 20C107.809 19.9813 107.296 19.972 106.885 19.972C106.474 19.972 105.952 19.9813 105.317 20C104.682 20 104.094 20 103.553 20C103.553 19.8693 103.562 19.7293 103.581 19.58C103.6 19.4307 103.637 19.2907 103.693 19.16C104.44 19.0667 104.972 18.9733 105.289 18.88C105.625 18.768 105.858 18.572 105.989 18.292C106.12 18.012 106.25 17.5453 106.381 16.892L109.069 3.844C109.2 3.20933 109.265 2.76133 109.265 2.5C109.265 2.07067 109.078 1.78133 108.705 1.632C108.35 1.464 107.716 1.34267 106.801 1.268C106.801 1.11867 106.81 0.978666 106.829 0.848C106.848 0.698666 106.885 0.539999 106.941 0.371999C107.482 0.371999 108.08 0.381332 108.733 0.399999C109.386 0.418665 109.918 0.427998 110.329 0.427998C110.702 0.427998 111.094 0.427998 111.505 0.427998C111.916 0.427998 112.289 0.427998 112.625 0.427998C112.98 0.409332 113.222 0.399999 113.353 0.399999L116.293 15.856L124.889 0.399999C125.281 0.418665 125.72 0.427998 126.205 0.427998C126.69 0.427998 127.082 0.427998 127.381 0.427998C128.184 0.427998 128.884 0.418665 129.481 0.399999C130.097 0.381332 130.694 0.371999 131.273 0.371999C131.273 0.521333 131.264 0.670666 131.245 0.819998C131.226 0.969332 131.18 1.11867 131.105 1.268C130.321 1.36133 129.752 1.45467 129.397 1.548C129.061 1.64133 128.828 1.828 128.697 2.108C128.566 2.388 128.436 2.85467 128.305 3.508L125.953 16.556C125.878 16.9107 125.832 17.2093 125.813 17.452C125.813 17.676 125.813 17.8907 125.813 18.096C125.813 18.5067 125.981 18.768 126.317 18.88C126.672 18.9733 127.362 19.0573 128.389 19.132C128.37 19.2627 128.352 19.412 128.333 19.58C128.314 19.7293 128.277 19.8693 128.221 20C127.642 20 126.924 20 126.065 20C125.225 19.9813 124.441 19.972 123.713 19.972C123.209 19.972 122.593 19.9813 121.865 20C121.137 20 120.502 20 119.961 20C119.961 19.8693 119.961 19.7293 119.961 19.58C119.98 19.4307 120.017 19.2907 120.073 19.16C120.876 19.0667 121.445 18.964 121.781 18.852C122.117 18.74 122.341 18.544 122.453 18.264C122.584 17.9653 122.705 17.508 122.817 16.892L125.477 1.996L115.481 19.972C115.35 20.0093 115.117 20.0373 114.781 20.056C114.464 20.0933 114.202 20.1027 113.997 20.084ZM141.898 16.332L141.338 12.72H135.178L133.246 16.248C133.004 16.7147 132.789 17.1347 132.602 17.508C132.434 17.8627 132.35 18.1427 132.35 18.348C132.35 18.628 132.5 18.8053 132.798 18.88C133.116 18.9547 133.648 19.0387 134.394 19.132C134.394 19.4493 134.338 19.748 134.226 20.028C133.965 20.0093 133.592 20 133.106 20C132.621 20 132.136 20 131.65 20C131.165 19.9813 130.782 19.972 130.502 19.972C129.98 19.972 129.485 19.9813 129.018 20C128.552 20 128.038 20.0093 127.478 20.028C127.478 19.7293 127.534 19.44 127.646 19.16C128.206 19.1227 128.664 19.0667 129.018 18.992C129.373 18.8987 129.7 18.7307 129.998 18.488C130.297 18.2267 130.633 17.816 131.006 17.256C131.38 16.6773 131.865 15.8747 132.462 14.848C132.985 13.9333 133.592 12.8693 134.282 11.656C134.973 10.4427 135.701 9.17333 136.466 7.848C137.232 6.52267 137.978 5.216 138.706 3.928C139.434 2.64 140.106 1.47333 140.722 0.427998C140.984 0.371999 141.217 0.325332 141.422 0.287998C141.646 0.250666 141.861 0.222666 142.066 0.204L144.95 16.192C145.081 16.864 145.202 17.396 145.314 17.788C145.445 18.1613 145.604 18.432 145.79 18.6C145.977 18.768 146.229 18.8893 146.546 18.964C146.864 19.02 147.284 19.076 147.806 19.132C147.806 19.4493 147.75 19.748 147.638 20.028C147.19 20.0093 146.649 20 146.014 20C145.38 19.9813 144.754 19.972 144.138 19.972C143.597 19.972 142.888 19.9813 142.01 20C141.133 20 140.312 20.0093 139.546 20.028C139.565 19.8787 139.584 19.7293 139.602 19.58C139.621 19.412 139.658 19.2627 139.714 19.132C140.386 19.0573 140.89 18.992 141.226 18.936C141.562 18.88 141.786 18.768 141.898 18.6C142.029 18.4133 142.094 18.124 142.094 17.732C142.094 17.6387 142.085 17.4987 142.066 17.312C142.048 17.1067 141.992 16.78 141.898 16.332ZM135.85 11.544H141.142L139.966 4.04L135.85 11.544ZM147.589 20.028C147.589 19.8973 147.599 19.748 147.617 19.58C147.636 19.412 147.673 19.2627 147.729 19.132C148.495 19.0573 149.055 18.9827 149.409 18.908C149.783 18.8147 150.044 18.6373 150.193 18.376C150.361 18.096 150.511 17.6387 150.641 17.004L153.217 3.732C153.292 3.37733 153.348 3.088 153.385 2.864C153.423 2.62133 153.441 2.416 153.441 2.248C153.441 1.81867 153.273 1.56667 152.937 1.492C152.62 1.39867 151.976 1.324 151.005 1.268C151.024 0.987999 151.08 0.689333 151.173 0.371999C151.509 0.371999 151.92 0.381332 152.405 0.399999C152.909 0.399999 153.395 0.409332 153.861 0.427998C154.347 0.427998 154.711 0.427998 154.953 0.427998C155.215 0.427998 155.625 0.427998 156.185 0.427998C156.745 0.409332 157.305 0.399999 157.865 0.399999C158.425 0.381332 158.845 0.371999 159.125 0.371999C160.973 0.371999 162.588 0.651999 163.969 1.212C165.369 1.75333 166.461 2.612 167.245 3.788C168.029 4.964 168.421 6.49467 168.421 8.38C168.421 10.284 168.095 11.964 167.441 13.42C166.807 14.8573 165.901 16.0707 164.725 17.06C163.568 18.0493 162.205 18.796 160.637 19.3C159.069 19.7853 157.371 20.028 155.541 20.028C155.093 20.028 154.543 20.0187 153.889 20C153.236 19.9813 152.611 19.972 152.013 19.972C151.603 19.972 151.117 19.9813 150.557 20C150.016 20 149.475 20 148.933 20C148.411 20.0187 147.963 20.028 147.589 20.028ZM153.413 18.684C154.216 18.8147 155 18.88 155.765 18.88C157.259 18.88 158.537 18.6653 159.601 18.236C160.665 17.788 161.552 17.2093 162.261 16.5C162.971 15.772 163.531 14.9693 163.941 14.092C164.352 13.196 164.641 12.2907 164.809 11.376C164.996 10.4427 165.089 9.57467 165.089 8.772C165.089 6.42 164.464 4.628 163.213 3.396C161.963 2.14533 160.171 1.52 157.837 1.52C157.464 1.52 157.091 1.53867 156.717 1.576L153.413 18.684ZM168.665 20.028C168.665 19.8973 168.674 19.748 168.693 19.58C168.711 19.412 168.749 19.2627 168.805 19.132C169.607 19.0573 170.186 18.9827 170.541 18.908C170.914 18.8147 171.175 18.6373 171.325 18.376C171.474 18.096 171.605 17.6387 171.717 17.004L174.293 3.732C174.367 3.396 174.423 3.10667 174.461 2.864C174.498 2.62133 174.517 2.42533 174.517 2.276C174.517 1.84667 174.349 1.59467 174.013 1.52C173.695 1.42667 173.051 1.34267 172.081 1.268C172.099 1.11867 172.118 0.978666 172.137 0.848C172.155 0.698666 172.202 0.539999 172.277 0.371999C172.631 0.371999 173.098 0.381332 173.677 0.399999C174.274 0.399999 174.918 0.409332 175.609 0.427998C176.299 0.427998 176.953 0.427998 177.569 0.427998H181.405C182.543 0.427998 183.514 0.427998 184.317 0.427998C185.138 0.409332 185.81 0.390665 186.333 0.371999V1.604C186.333 2.108 186.333 2.62133 186.333 3.144C186.351 3.66667 186.361 4.22667 186.361 4.824C186.062 4.88 185.782 4.88 185.521 4.824C185.241 3.94667 184.979 3.27467 184.737 2.808C184.494 2.34133 184.139 2.024 183.673 1.856C183.225 1.66933 182.543 1.576 181.629 1.576H177.877L176.393 9.22H178.101C178.773 9.22 179.305 9.20133 179.697 9.164C180.089 9.108 180.406 8.996 180.649 8.828C180.891 8.64133 181.106 8.36133 181.293 7.988C181.479 7.596 181.694 7.05467 181.937 6.364C182.291 6.308 182.637 6.308 182.973 6.364C182.842 6.868 182.693 7.44667 182.525 8.1C182.375 8.75333 182.245 9.35067 182.133 9.892C182.021 10.4333 181.909 11.0307 181.797 11.684C181.685 12.3373 181.591 12.9627 181.517 13.56C181.143 13.616 180.789 13.616 180.453 13.56C180.49 13.3547 180.509 13.14 180.509 12.916C180.527 12.692 180.537 12.5053 180.537 12.356C180.537 11.7213 180.453 11.2733 180.285 11.012C180.117 10.7507 179.837 10.592 179.445 10.536C179.071 10.4613 178.539 10.424 177.849 10.424H176.169L174.545 18.796H178.521C179.585 18.796 180.434 18.684 181.069 18.46C181.703 18.2173 182.245 17.816 182.693 17.256C183.141 16.696 183.617 15.9493 184.121 15.016C184.475 14.9227 184.83 14.9227 185.185 15.016C184.774 16.1173 184.438 17.0787 184.177 17.9C183.934 18.7213 183.738 19.4213 183.589 20C181.759 20 179.911 20 178.045 20C176.178 19.9813 174.339 19.972 172.529 19.972C172.006 19.972 171.362 19.9813 170.597 20C169.85 20.0187 169.206 20.028 168.665 20.028Z" fill="#212121"/>
</svg>
