<svg width="103" height="21" viewBox="0 0 103 21" fill="none" xmlns="http://www.w3.org/2000/svg">
<path d="M10.184 12.4569C10.016 12.1396 9.85733 11.8969 9.708 11.7289C9.55867 11.5609 9.35333 11.4396 9.092 11.3649C8.84933 11.2716 8.476 11.2062 7.972 11.1689L6.88 16.8809C6.824 17.1982 6.768 17.4782 6.712 17.7209C6.67467 17.9636 6.656 18.1876 6.656 18.3929C6.656 18.7662 6.796 18.9996 7.076 19.0929C7.37467 19.1862 8.00933 19.2702 8.98 19.3449C8.96133 19.4756 8.93333 19.6249 8.896 19.7929C8.87733 19.9609 8.84933 20.1102 8.812 20.2409C8.23333 20.2222 7.58 20.2129 6.852 20.2129C6.14267 20.1942 5.47067 20.1849 4.836 20.1849C4.20133 20.1849 3.53867 20.1942 2.848 20.2129C2.176 20.2129 1.45733 20.2222 0.692 20.2409C0.692 20.1102 0.701333 19.9609 0.72 19.7929C0.738667 19.6249 0.776 19.4756 0.832 19.3449C1.63467 19.2516 2.21333 19.1676 2.568 19.0929C2.94133 18.9996 3.19333 18.8222 3.324 18.5609C3.47333 18.2809 3.604 17.8329 3.716 17.2169L6.292 3.94489C6.36667 3.60889 6.42267 3.32889 6.46 3.10489C6.49733 2.86222 6.516 2.65689 6.516 2.48889C6.516 2.05956 6.348 1.80756 6.012 1.73289C5.69467 1.63956 5.05067 1.55556 4.08 1.48089C4.09867 1.20089 4.15467 0.902223 4.248 0.58489C4.78933 0.58489 5.40533 0.594223 6.096 0.612889C6.78667 0.631556 7.34667 0.640889 7.776 0.640889C8.07467 0.640889 8.504 0.640889 9.064 0.640889C9.624 0.622223 10.1747 0.612889 10.716 0.612889C11.2573 0.594223 11.6587 0.58489 11.92 0.58489C13.9173 0.58489 15.4293 0.939556 16.456 1.64889C17.5013 2.35822 18.024 3.45956 18.024 4.95289C18.024 6.46489 17.5107 7.71556 16.484 8.70489C15.4573 9.67556 14.132 10.3942 12.508 10.8609V10.9449C12.6573 11.1129 12.7973 11.2996 12.928 11.5049C13.0773 11.6916 13.2267 11.9156 13.376 12.1769C13.544 12.4569 13.7493 12.8489 13.992 13.3529C14.2533 13.8569 14.524 14.3982 14.804 14.9769C15.084 15.5369 15.3453 16.0689 15.588 16.5729C15.9987 17.3942 16.3533 18.0009 16.652 18.3929C16.9507 18.7662 17.2867 19.0089 17.66 19.1209C18.0333 19.2142 18.528 19.2889 19.144 19.3449C19.144 19.6436 19.0787 19.9422 18.948 20.2409C18.6493 20.2409 18.2573 20.2316 17.772 20.2129C17.2867 20.2129 16.8107 20.2129 16.344 20.2129C15.8773 20.1942 15.504 20.1849 15.224 20.1849C14.9253 20.1849 14.6827 20.1942 14.496 20.2129C14.328 20.2129 14.0947 20.2129 13.796 20.2129C13.4973 19.4476 13.152 18.6262 12.76 17.7489C12.3867 16.8529 11.976 15.9476 11.528 15.0329C11.0987 14.1182 10.6507 13.2596 10.184 12.4569ZM8.196 10.0209C8.43867 10.0582 8.69067 10.0956 8.952 10.1329C9.232 10.1516 9.50267 10.1609 9.764 10.1609C10.94 10.1609 11.9013 9.93689 12.648 9.48889C13.3947 9.04089 13.9453 8.44356 14.3 7.69689C14.6547 6.95022 14.832 6.12889 14.832 5.23289C14.832 4.67289 14.7387 4.13156 14.552 3.60889C14.384 3.06756 14.0573 2.61956 13.572 2.26489C13.1053 1.91022 12.424 1.73289 11.528 1.73289C11.36 1.73289 11.0987 1.74222 10.744 1.76089C10.408 1.76089 10.0907 1.77022 9.792 1.78889L8.196 10.0209ZM19.0051 20.2409C19.0051 20.1102 19.0144 19.9609 19.0331 19.7929C19.0518 19.6249 19.0891 19.4756 19.1451 19.3449C19.9478 19.2702 20.5264 19.1956 20.8811 19.1209C21.2544 19.0276 21.5158 18.8502 21.6651 18.5889C21.8144 18.3089 21.9451 17.8516 22.0571 17.2169L24.6331 3.94489C24.7078 3.60889 24.7638 3.31956 24.8011 3.07689C24.8384 2.83422 24.8571 2.63822 24.8571 2.48889C24.8571 2.05956 24.6891 1.80756 24.3531 1.73289C24.0358 1.63956 23.3918 1.55556 22.4211 1.48089C22.4398 1.33156 22.4584 1.19156 22.4771 1.06089C22.4958 0.911557 22.5424 0.75289 22.6171 0.58489C22.9718 0.58489 23.4384 0.594223 24.0171 0.612889C24.6144 0.612889 25.2584 0.622223 25.9491 0.640889C26.6398 0.640889 27.2931 0.640889 27.9091 0.640889H31.7451C32.8838 0.640889 33.8544 0.640889 34.6571 0.640889C35.4784 0.622223 36.1504 0.603556 36.6731 0.58489V1.81689C36.6731 2.32089 36.6731 2.83422 36.6731 3.35689C36.6918 3.87956 36.7011 4.43956 36.7011 5.03689C36.4024 5.09289 36.1224 5.09289 35.8611 5.03689C35.5811 4.15956 35.3198 3.48756 35.0771 3.02089C34.8344 2.55422 34.4798 2.23689 34.0131 2.06889C33.5651 1.88222 32.8838 1.78889 31.9691 1.78889H28.2171L26.7331 9.43289H28.4411C29.1131 9.43289 29.6451 9.41422 30.0371 9.37689C30.4291 9.32089 30.7464 9.20889 30.9891 9.04089C31.2318 8.85422 31.4464 8.57422 31.6331 8.20089C31.8198 7.80889 32.0344 7.26756 32.2771 6.57689C32.6318 6.52089 32.9771 6.52089 33.3131 6.57689C33.1824 7.08089 33.0331 7.65956 32.8651 8.31289C32.7158 8.96622 32.5851 9.56356 32.4731 10.1049C32.3611 10.6462 32.2491 11.2436 32.1371 11.8969C32.0251 12.5502 31.9318 13.1756 31.8571 13.7729C31.4838 13.8289 31.1291 13.8289 30.7931 13.7729C30.8304 13.5676 30.8491 13.3529 30.8491 13.1289C30.8678 12.9049 30.8771 12.7182 30.8771 12.5689C30.8771 11.9342 30.7931 11.4862 30.6251 11.2249C30.4571 10.9636 30.1771 10.8049 29.7851 10.7489C29.4118 10.6742 28.8798 10.6369 28.1891 10.6369H26.5091L24.8851 19.0089H28.8611C29.9251 19.0089 30.7744 18.8969 31.4091 18.6729C32.0438 18.4302 32.5851 18.0289 33.0331 17.4689C33.4811 16.9089 33.9571 16.1622 34.4611 15.2289C34.8158 15.1356 35.1704 15.1356 35.5251 15.2289C35.1144 16.3302 34.7784 17.2916 34.5171 18.1129C34.2744 18.9342 34.0784 19.6342 33.9291 20.2129C32.0998 20.2129 30.2518 20.2129 28.3851 20.2129C26.5184 20.1942 24.6798 20.1849 22.8691 20.1849C22.3464 20.1849 21.7024 20.1942 20.9371 20.2129C20.1904 20.2316 19.5464 20.2409 19.0051 20.2409ZM48.5471 16.5449L47.9871 12.9329H41.8271L39.8951 16.4609C39.6524 16.9276 39.4377 17.3476 39.2511 17.7209C39.0831 18.0756 38.9991 18.3556 38.9991 18.5609C38.9991 18.8409 39.1484 19.0182 39.4471 19.0929C39.7644 19.1676 40.2964 19.2516 41.0431 19.3449C41.0431 19.6622 40.9871 19.9609 40.8751 20.2409C40.6137 20.2222 40.2404 20.2129 39.7551 20.2129C39.2697 20.2129 38.7844 20.2129 38.2991 20.2129C37.8137 20.1942 37.4311 20.1849 37.1511 20.1849C36.6284 20.1849 36.1337 20.1942 35.6671 20.2129C35.2004 20.2129 34.6871 20.2222 34.1271 20.2409C34.1271 19.9422 34.1831 19.6529 34.2951 19.3729C34.8551 19.3356 35.3124 19.2796 35.6671 19.2049C36.0217 19.1116 36.3484 18.9436 36.6471 18.7009C36.9457 18.4396 37.2817 18.0289 37.6551 17.4689C38.0284 16.8902 38.5137 16.0876 39.1111 15.0609C39.6337 14.1462 40.2404 13.0822 40.9311 11.8689C41.6217 10.6556 42.3497 9.38622 43.1151 8.06089C43.8804 6.73556 44.6271 5.42889 45.3551 4.14089C46.0831 2.85289 46.7551 1.68622 47.3711 0.640889C47.6324 0.58489 47.8657 0.538223 48.0711 0.500889C48.2951 0.463556 48.5097 0.435557 48.7151 0.41689L51.5991 16.4049C51.7297 17.0769 51.8511 17.6089 51.9631 18.0009C52.0937 18.3742 52.2524 18.6449 52.4391 18.8129C52.6257 18.9809 52.8777 19.1022 53.1951 19.1769C53.5124 19.2329 53.9324 19.2889 54.4551 19.3449C54.4551 19.6622 54.3991 19.9609 54.2871 20.2409C53.8391 20.2222 53.2977 20.2129 52.6631 20.2129C52.0284 20.1942 51.4031 20.1849 50.7871 20.1849C50.2457 20.1849 49.5364 20.1942 48.6591 20.2129C47.7817 20.2129 46.9604 20.2222 46.1951 20.2409C46.2137 20.0916 46.2324 19.9422 46.2511 19.7929C46.2697 19.6249 46.3071 19.4756 46.3631 19.3449C47.0351 19.2702 47.5391 19.2049 47.8751 19.1489C48.2111 19.0929 48.4351 18.9809 48.5471 18.8129C48.6777 18.6262 48.7431 18.3369 48.7431 17.9449C48.7431 17.8516 48.7337 17.7116 48.7151 17.5249C48.6964 17.3196 48.6404 16.9929 48.5471 16.5449ZM42.4991 11.7569H47.7911L46.6151 4.25289L42.4991 11.7569ZM54.2381 20.2409C54.2381 20.1102 54.2474 19.9609 54.2661 19.7929C54.2847 19.6249 54.3221 19.4756 54.3781 19.3449C55.1434 19.2702 55.7034 19.1956 56.0581 19.1209C56.4314 19.0276 56.6927 18.8502 56.8421 18.5889C57.0101 18.3089 57.1594 17.8516 57.2901 17.2169L59.8661 3.94489C59.9407 3.59022 59.9967 3.30089 60.0341 3.07689C60.0714 2.83422 60.0901 2.62889 60.0901 2.46089C60.0901 2.03156 59.9221 1.77956 59.5861 1.70489C59.2687 1.61156 58.6247 1.53689 57.6541 1.48089C57.6727 1.20089 57.7287 0.902223 57.8221 0.58489C58.1581 0.58489 58.5687 0.594223 59.0541 0.612889C59.5581 0.612889 60.0434 0.622223 60.5101 0.640889C60.9954 0.640889 61.3594 0.640889 61.6021 0.640889C61.8634 0.640889 62.2741 0.640889 62.8341 0.640889C63.3941 0.622223 63.9541 0.612889 64.5141 0.612889C65.0741 0.594223 65.4941 0.58489 65.7741 0.58489C67.6221 0.58489 69.2367 0.86489 70.6181 1.42489C72.0181 1.96622 73.1101 2.82489 73.8941 4.00089C74.6781 5.17689 75.0701 6.70756 75.0701 8.59289C75.0701 10.4969 74.7434 12.1769 74.0901 13.6329C73.4554 15.0702 72.5501 16.2836 71.3741 17.2729C70.2167 18.2622 68.8541 19.0089 67.2861 19.5129C65.7181 19.9982 64.0194 20.2409 62.1901 20.2409C61.7421 20.2409 61.1914 20.2316 60.5381 20.2129C59.8847 20.1942 59.2594 20.1849 58.6621 20.1849C58.2514 20.1849 57.7661 20.1942 57.2061 20.2129C56.6647 20.2129 56.1234 20.2129 55.5821 20.2129C55.0594 20.2316 54.6114 20.2409 54.2381 20.2409ZM60.0621 18.8969C60.8647 19.0276 61.6487 19.0929 62.4141 19.0929C63.9074 19.0929 65.1861 18.8782 66.2501 18.4489C67.3141 18.0009 68.2007 17.4222 68.9101 16.7129C69.6194 15.9849 70.1794 15.1822 70.5901 14.3049C71.0007 13.4089 71.2901 12.5036 71.4581 11.5889C71.6447 10.6556 71.7381 9.78756 71.7381 8.98489C71.7381 6.63289 71.1127 4.84089 69.8621 3.60889C68.6114 2.35822 66.8194 1.73289 64.4861 1.73289C64.1127 1.73289 63.7394 1.75156 63.3661 1.78889L60.0621 18.8969ZM81.4477 12.2049L78.7597 4.33689C78.4797 3.49689 78.237 2.89022 78.0317 2.51689C77.8264 2.12489 77.5557 1.87289 77.2197 1.76089C76.9024 1.63022 76.4264 1.53689 75.7917 1.48089C75.7917 1.21956 75.8384 0.92089 75.9317 0.58489C76.6037 0.603556 77.257 0.622223 77.8917 0.640889C78.5264 0.640889 79.189 0.640889 79.8797 0.640889C80.589 0.640889 81.3264 0.631556 82.0917 0.612889C82.857 0.594223 83.501 0.58489 84.0237 0.58489C84.0237 0.715557 84.005 0.86489 83.9677 1.03289C83.949 1.18222 83.9024 1.33156 83.8277 1.48089C82.8384 1.55556 82.1944 1.67689 81.8957 1.84489C81.597 1.99422 81.4477 2.19956 81.4477 2.46089C81.4477 2.70356 81.5784 3.20756 81.8397 3.97289L84.1077 10.5529L89.0077 3.66489C89.269 3.29156 89.437 3.01156 89.5117 2.82489C89.605 2.63822 89.6517 2.46089 89.6517 2.29289C89.6517 2.05022 89.5024 1.87289 89.2037 1.76089C88.9237 1.64889 88.345 1.55556 87.4677 1.48089C87.4864 1.20089 87.5517 0.902223 87.6637 0.58489C87.9811 0.58489 88.3544 0.594223 88.7837 0.612889C89.2317 0.612889 89.6797 0.622223 90.1277 0.640889C90.5757 0.640889 90.9491 0.640889 91.2477 0.640889C91.845 0.640889 92.4144 0.640889 92.9557 0.640889C93.4971 0.622223 94.0571 0.603556 94.6357 0.58489C94.6171 0.715557 94.5891 0.86489 94.5517 1.03289C94.5144 1.18222 94.4771 1.33156 94.4397 1.48089C93.8984 1.53689 93.4411 1.61156 93.0677 1.70489C92.713 1.77956 92.3864 1.91022 92.0877 2.09689C91.8077 2.28356 91.4997 2.57289 91.1637 2.96489C90.8464 3.35689 90.4451 3.88889 89.9597 4.56089L84.5837 12.0089L83.6317 16.8809C83.557 17.2169 83.4917 17.4969 83.4357 17.7209C83.3984 17.9449 83.3797 18.1502 83.3797 18.3369C83.3797 18.7476 83.5384 18.9996 83.8557 19.0929C84.173 19.1862 84.845 19.2702 85.8717 19.3449C85.853 19.4756 85.825 19.6249 85.7877 19.7929C85.769 19.9609 85.741 20.1102 85.7037 20.2409C85.1624 20.2409 84.5091 20.2316 83.7437 20.2129C82.997 20.1942 82.297 20.1849 81.6437 20.1849C81.1957 20.1849 80.6917 20.1942 80.1317 20.2129C79.5904 20.2129 79.0677 20.2129 78.5637 20.2129C78.0597 20.2316 77.6304 20.2409 77.2757 20.2409C77.2757 20.1102 77.285 19.9609 77.3037 19.7929C77.3224 19.6249 77.3597 19.4756 77.4157 19.3449C78.2744 19.2702 78.8904 19.1956 79.2637 19.1209C79.6557 19.0276 79.9264 18.8409 80.0757 18.5609C80.225 18.2809 80.3557 17.8329 80.4677 17.2169L81.4477 12.2049ZM97.0881 0.30489C97.6855 0.30489 98.3015 0.463557 98.9361 0.78089C99.5895 1.07956 100.187 1.52756 100.728 2.12489C101.288 2.72222 101.736 3.45022 102.072 4.30889C102.408 5.16756 102.576 6.13822 102.576 7.22089C102.576 8.45289 102.333 9.41422 101.848 10.1049C101.363 10.7769 100.672 11.2436 99.7761 11.5049C98.8801 11.7662 97.8068 11.8969 96.5561 11.8969L95.7721 14.5849C95.4735 14.5849 95.1561 14.5569 94.8201 14.5009L95.2961 9.23689C96.6961 9.23689 97.8348 9.19956 98.7121 9.12489C99.5895 9.03156 100.233 8.81689 100.644 8.48089C101.073 8.12622 101.288 7.55689 101.288 6.77289C101.288 5.85822 101.055 4.99956 100.588 4.19689C100.121 3.39422 99.5615 2.81556 98.9081 2.46089C98.6095 2.68489 98.2455 2.86222 97.8161 2.99289C97.4055 3.12356 96.9948 3.18889 96.5841 3.18889C96.0241 3.18889 95.6041 3.06756 95.3241 2.82489C95.0628 2.56356 94.9321 2.26489 94.9321 1.92889C94.9321 1.53689 95.1188 1.17289 95.4921 0.83689C95.8655 0.482223 96.3975 0.30489 97.0881 0.30489ZM94.4281 20.5769C93.8868 20.5769 93.4481 20.3996 93.1121 20.0449C92.7761 19.6716 92.6081 19.2236 92.6081 18.7009C92.6081 18.1036 92.8228 17.5902 93.2521 17.1609C93.6815 16.7129 94.1948 16.4889 94.7921 16.4889C95.3335 16.4889 95.7628 16.6662 96.0801 17.0209C96.3975 17.3756 96.5561 17.8142 96.5561 18.3369C96.5561 18.9529 96.3508 19.4849 95.9401 19.9329C95.5481 20.3622 95.0441 20.5769 94.4281 20.5769Z" fill="#212121"/>
</svg>
