<svg width="16" height="17" viewBox="0 0 16 17" fill="none" xmlns="http://www.w3.org/2000/svg">
<path d="M9.58801 4.43624C7.98606 2.83429 5.41384 2.80856 3.84362 4.37878C2.2734 5.949 2.29913 8.52122 3.90108 10.1232C5.3202 11.5423 7.50093 11.7227 9.071 10.6541L11.0706 12.8858C11.4105 13.2667 11.9951 13.2881 12.3484 12.9348L12.3996 12.8836C12.7529 12.5303 12.7316 11.9457 12.3506 11.6057L10.1189 9.60616C11.1892 8.03439 11.0071 5.85537 9.58801 4.43624ZM8.64947 9.18464C7.61859 10.2155 5.92906 10.1986 4.87735 9.14691C3.82563 8.09519 3.80873 6.40566 4.83961 5.37478C5.8705 4.3439 7.56003 4.3608 8.61174 5.41251C9.6652 6.46597 9.68036 8.15376 8.64947 9.18464Z" fill="#464656"/>
</svg>
