<svg width="27" height="27" viewBox="0 0 27 27" fill="none" xmlns="http://www.w3.org/2000/svg">
<path d="M15.8392 5.3504C12.8846 2.3958 8.14049 2.34834 5.24441 5.24442C2.34834 8.14049 2.3958 12.8846 5.35039 15.8392C7.96778 18.4566 11.9899 18.7894 14.8857 16.8185L18.5736 20.9345C19.2006 21.6371 20.2788 21.6765 20.9304 21.0249L21.0249 20.9304C21.6765 20.2788 21.6371 19.2006 20.9345 18.5736L16.8185 14.8857C18.7925 11.9867 18.4566 7.96779 15.8392 5.3504ZM14.1082 14.1082C12.2069 16.0096 9.09076 15.9784 7.151 14.0386C5.21124 12.0989 5.18007 8.98274 7.08141 7.08141C8.98274 5.18007 12.0989 5.21124 14.0386 7.151C15.9816 9.09397 16.0096 12.2069 14.1082 14.1082Z" fill="#464656"/>
</svg>
