<svg width="20" height="20" viewBox="0 0 20 20" fill="none" xmlns="http://www.w3.org/2000/svg">
<path d="M10.2134 9.99725C8.87275 9.99725 7.77588 9.57069 6.92275 8.71757C6.06963 7.86444 5.64307 6.76757 5.64307 5.42694C5.64307 4.08632 6.06963 2.98944 6.92275 2.13632C7.77588 1.28319 8.87275 0.856628 10.2134 0.856628C11.554 0.856628 12.6509 1.28319 13.504 2.13632C14.3571 2.98944 14.7837 4.08632 14.7837 5.42694C14.7837 6.76757 14.3571 7.86444 13.504 8.71757C12.6509 9.57069 11.554 9.99725 10.2134 9.99725ZM0.463379 19.7777V16.9137C0.463379 16.1418 0.656348 15.4816 1.04229 14.9332C1.42822 14.3848 1.92588 13.9683 2.53525 13.684C3.89619 13.0746 5.20127 12.6176 6.45049 12.3129C7.69971 12.0082 8.954 11.8558 10.2134 11.8558C11.4728 11.8558 12.722 12.0133 13.961 12.3281C15.2001 12.643 16.5001 13.0949 17.861 13.684C18.4907 13.9683 18.9985 14.3848 19.3845 14.9332C19.7704 15.4816 19.9634 16.1418 19.9634 16.9137V19.7777H0.463379Z" fill="#5A5A5A"/>
</svg>
